{"title":"Resurrecting.the.Champ.2007.SWESUB.DVDRip.XviD.AC3-Zen_Bud","uid":5766900,"size":1449709426,"categoryP":"video","categoryS":"movies","magnet":"?xt=urn:btih:26426b782e4557fdaa6a72f02af173eee6cbe65d&amp;dn=Resurrecting.the.Champ.2007.SWESUB.DVDRip.XviD.AC3-Zen_Bud&amp;tr=udp%3A%2F%2Ftracker.openbittorrent.com%3A80&amp;tr=udp%3A%2F%2Fopen.demonii.com%3A1337&amp;tr=udp%3A%2F%2Ftracker.coppersurfer.tk%3A6969&amp;tr=udp%3A%2F%2Fexodus.desync.com%3A6969","seeders":0,"leechers":1,"uploader":"Zen_Bud","files":-1,"time":1281946980,"description":"General\nComplete name                    : Resurrecting.the.Champ.2007.avi\nFormat                           : AVI\nFile size                        : 1.35 GiB\nDuration                         : 1h 54mn\nOverall bit rate                 : 1 686 Kbps\n\nVideo\n\nFormat                           : MPEG-4 Visual\nCodec ID/Hint                    : XviD\nDuration                         : 1h 52mn\nBit rate                         : 1 256 Kbps\nWidth                            : 720 pixels\nHeight                           : 496 pixels\nStream size                      : 1 006 MiB (73%)\nWriting library                  : XviD 1.1.2 (UTC 2006-11-01)\n\nAudio\n\nFormat                           : AC-3\nDuration                         : 1h 54mn\nBit rate                         : 448 Kbps\nChannel(s)                       : 6 channels\nChannel positions                : Front: L C R, Side: L R, LFE\nSampling rate                    : 48.0 KHz\nStream size                      : 367 MiB (27%)\n\n\n","torrent":{"xt":"urn:btih:26426b782e4557fdaa6a72f02af173eee6cbe65d","amp;dn":"Resurrecting.the.Champ.2007.SWESUB.DVDRip.XviD.AC3-Zen_Bud","amp;tr":["udp%3A%2F%2Ftracker.openbittorrent.com%3A80","udp%3A%2F%2Fopen.demonii.com%3A1337","udp%3A%2F%2Ftracker.coppersurfer.tk%3A6969","udp%3A%2F%2Fexodus.desync.com%3A6969"],"infoHash":"26426b782e4557fdaa6a72f02af173eee6cbe65d","infoHashBuffer":{"type":"Buffer","data":[38,66,107,120,46,69,87,253,170,106,114,240,42,241,115,238,230,203,230,93]},"announce":[],"urlList":[]}}